PathFileType	4	(X/Y/Z)	C:\Users\Basilio\Documents\Thesis Gigler\squatting_fais\c3dfiles\054\SJ_pre1\markers_experimental.trc
DataRate	CameraRate	NumFrames	NumMarkers	Units	OrigDataRate	OrigDataStartFrame	OrigNumFrames
200.000000	200.000000	4	61	mm	200.000000	0	1968
Frame#	Time	FHD			LBHD			RBHD			C7			T10			CLAV			LSHO			LUUPA			LMUPA			LDUPA			LLEP			LMEP			LRAD			LUL			LRFIN			RSHO			RUPA1			RMUPA			RDUPA			RLEP			RMEP			RRAD			RUL			RUFIN			LASI			RASI			USACR			LSACR			RSACR			LTHI1			LTHI2			LTHI3			LTHI4			LLFC			LMFC			LTIB1			LTIB2			LTIB3			LTIB4			LLMAL			LMMAL			LHEE			LMT1			LMT2			LMT5			RTHI			RTHI2			RTHI3			RTHI4			RLFC			RMFC			RTIB1			RTIB2			RTIB3			RTIB4			RLMAL			RMMAL			RHEE			RMT1			RMT2			RMT5			
		X1	Y1	Z1	X2	Y2	Z2	X3	Y3	Z3	X4	Y4	Z4	X5	Y5	Z5	X6	Y6	Z6	X7	Y7	Z7	X8	Y8	Z8	X9	Y9	Z9	X10	Y10	Z10	X11	Y11	Z11	X12	Y12	Z12	X13	Y13	Z13	X14	Y14	Z14	X15	Y15	Z15	X16	Y16	Z16	X17	Y17	Z17	X18	Y18	Z18	X19	Y19	Z19	X20	Y20	Z20	X21	Y21	Z21	X22	Y22	Z22	X23	Y23	Z23	X24	Y24	Z24	X25	Y25	Z25	X26	Y26	Z26	X27	Y27	Z27	X28	Y28	Z28	X29	Y29	Z29	X30	Y30	Z30	X31	Y31	Z31	X32	Y32	Z32	X33	Y33	Z33	X34	Y34	Z34	X35	Y35	Z35	X36	Y36	Z36	X37	Y37	Z37	X38	Y38	Z38	X39	Y39	Z39	X40	Y40	Z40	X41	Y41	Z41	X42	Y42	Z42	X43	Y43	Z43	X44	Y44	Z44	X45	Y45	Z45	X46	Y46	Z46	X47	Y47	Z47	X48	Y48	Z48	X49	Y49	Z49	X50	Y50	Z50	X51	Y51	Z51	X52	Y52	Z52	X53	Y53	Z53	X54	Y54	Z54	X55	Y55	Z55	X56	Y56	Z56	X57	Y57	Z57	X58	Y58	Z58	X59	Y59	Z59	X60	Y60	Z60	X61	Y61	Z61	

1	0	-61.10726547241212	1661.850708007813	-900.0471191406252	-224.4085540771485	1688.68212890625	-985.6192016601565	-250.1836090087891	1696.416748046875	-847.864685058594	-350.9620971679688	1547.926635742188	-910.3123779296877	-432.6728820800782	1208.099365234375	-923.689392089844	-229.689437866211	1452.842407226563	-911.7283935546877	-277.6318054199219	1533.18408203125	-1067.355712890625	-376.1396179199219	1427.427978515625	-1252.687377929688	-340.6379089355469	1388.14892578125	-1258.8505859375	-386.1960754394532	1375.544067382813	-1298.3671875	-385.8996582031251	1311.2666015625	-1321.52294921875	-464.9230346679689	1301.178833007813	-1280.932983398438	-381.9688415527344	1107.514404296875	-1152.7734375	-346.0865478515626	1063.148681640625	-1203.5244140625	-322.4686889648438	1107.806274414063	-1117.95654296875	-269.6353759765626	1522.620239257813	-750.2960815429689	-378.5265502929688	1402.443603515625	-571.9577636718751	-358.8789367675782	1357.60107421875	-568.8320922851564	-408.4444274902345	1350.727783203125	-533.8767700195314	-422.4958801269532	1301.81103515625	-517.6779174804689	-492.6184387207032	1303.258911132813	-570.4163208007814	-410.845184326172	1102.77734375	-711.6092529296876	-374.2470397949219	1065.111328125	-650.9799804687501	-343.7856445312501	1112.826293945313	-731.7303466796876	-237.0381164550782	1026.775146484375	-1043.079956054688	-245.7861022949219	1025.80908203125	-790.561218261719	-431.288787841797	1113.578979492188	-924.2442016601565	-434.636688232422	1082.02685546875	-953.3289794921877	-435.7298583984376	1080.237182617188	-896.5643310546877	-343.5688781738282	803.099060058594	-1143.971069335938	-316.6410217285157	721.8393554687501	-1147.431030273438	-269.9049377441407	723.2179565429689	-1141.562377929688	-348.0310058593751	670.6401977539064	-1134.937622070313	-356.7131042480469	513.3431396484376	-1123.398803710938	-318.2557983398438	494.7346801757814	-994.810974121094	-319.9371643066407	345.2856445312501	-1095.591796875	-377.9559631347657	307.0531311035157	-1154.058471679688	-337.0413208007813	300.6044921875001	-1131.1455078125	-341.7348022460938	220.3113250732422	-1104.255126953125	-405.3157043457032	86.93624114990236	-1153.23388671875	-368.9717712402344	102.9075012207032	-1063.2236328125	-467.6446533203126	49.84849166870119	-1095.39990234375	-245.7083892822266	55.13460540771486	-1093.376953125	-241.7595672607422	59.70181274414064	-1143.560180664063	-294.7357177734376	37.69445419311524	-1193.540161132813	-362.9855041503907	730.9051513671876	-717.6256713867189	-332.1309509277344	671.7207641601564	-713.6718750000001	-298.7444458007813	669.2028808593751	-716.4506835937501	-367.8138427734376	598.1900634765626	-732.5790405273439	-384.6427612304689	505.5221557617189	-734.0520019531251	-327.1120605468751	497.1505432128907	-859.3564453125002	-333.4624328613282	397.0672607421876	-728.3712768554689	-407.5906066894532	327.5432434082032	-696.4669189453126	-361.7818908691407	318.9434509277344	-702.1149291992189	-345.1786193847657	267.1922607421876	-721.2224731445314	-400.9483032226564	89.25147247314455	-693.2537841796876	-356.8878784179688	104.1408767700196	-776.3335571289065	-453.582244873047	46.47710418701173	-754.8802490234376	-226.1654968261719	55.19955062866212	-743.0399780273439	-231.5477447509766	57.40574264526369	-695.7216796875001	-282.0511779785157	34.83371734619141	-650.9046020507814	
2	0.005	-62.27885818481447	1664.427612304688	-900.9976196289065	-226.1815338134766	1689.15869140625	-986.1694335937502	-251.732650756836	1696.169067382813	-848.2380371093752	-350.7018737792969	1547.939208984375	-910.7617797851565	-432.4450988769532	1208.155151367188	-923.829040527344	-229.211654663086	1452.91943359375	-912.1773681640627	-277.4582214355469	1532.944091796875	-1067.809448242188	-376.0436096191407	1427.61865234375	-1252.804443359375	-340.5788879394532	1388.389526367188	-1259.104125976563	-386.1384277343751	1375.860961914063	-1298.7353515625	-385.8336791992189	1311.626342773438	-1321.96435546875	-464.916717529297	1301.52001953125	-1281.272827148438	-382.0428161621094	1107.791137695313	-1153.163208007813	-346.0899658203126	1063.4765625	-1203.8291015625	-322.5559387207032	1107.94970703125	-1118.22607421875	-269.2457885742188	1522.66845703125	-750.6461181640626	-378.3576660156251	1402.559448242188	-572.3512573242189	-358.6362609863282	1357.71142578125	-569.3359375000001	-408.3742065429689	1350.831665039063	-534.3568115234376	-422.4245605468751	1301.92578125	-518.2261352539064	-492.5311279296876	1303.4091796875	-570.9233398437501	-410.6894531250001	1102.835327148438	-711.9753417968751	-374.1527099609376	1065.221069335938	-651.2708740234376	-343.5198059082032	1112.930908203125	-732.0854492187501	-237.1287078857422	1026.813720703125	-1043.35107421875	-245.6385650634766	1025.71337890625	-790.880065917969	-431.194549560547	1113.675048828125	-924.5346679687502	-434.5846557617189	1082.093505859375	-953.5459594726565	-435.5549316406251	1080.30029296875	-896.7480468750002	-343.1915588378907	803.0412597656252	-1144.444213867188	-316.2746276855469	721.7954711914064	-1147.730224609375	-269.3970031738282	723.2389526367189	-1141.891235351563	-347.5588684082032	670.5745239257814	-1135.370483398438	-356.4316406250001	513.4877319335939	-1123.797607421875	-317.7921752929688	494.8750610351564	-995.0911254882815	-319.7815246582032	345.0094604492188	-1095.63232421875	-377.6052856445313	306.9871826171876	-1154.224731445313	-336.8513183593751	300.3685913085938	-1131.225952148438	-341.5701599121094	220.1714630126954	-1104.259521484375	-405.2684936523439	86.9248733520508	-1153.281005859375	-368.9916381835938	102.9242553710938	-1063.215454101563	-467.6288146972657	49.81254196166994	-1095.400268554688	-245.690902709961	55.12376785278322	-1093.392578125	-242.3739624023438	59.67391967773439	-1143.8642578125	-293.9501342773438	37.59378051757813	-1193.7568359375	-362.8482666015626	730.8720703125001	-717.7145385742189	-332.0820312500001	671.8095092773439	-713.6759643554689	-298.5538024902344	668.9276123046876	-716.5962524414064	-367.7388610839844	598.1784057617189	-732.7258300781251	-384.4358215332032	505.4837951660157	-734.2060546875001	-327.0157165527344	497.0380859375001	-859.416442871094	-333.3623962402344	397.1049194335939	-728.4581298828126	-407.4635009765626	327.4463195800782	-696.5514526367189	-361.7662353515626	318.9244995117188	-702.1707763671876	-345.1453247070313	267.1846618652344	-721.2218017578126	-400.9173278808595	89.2657928466797	-693.2453002929689	-356.8375549316407	104.1629333496094	-776.3438720703127	-453.5877685546876	46.53227615356446	-754.8903808593751	-226.1871795654297	55.19473266601564	-743.0202026367189	-231.6132965087891	57.38901901245119	-695.7226562500001	-282.0967712402344	34.83562850952149	-650.9049072265626	
3	0.01	-63.47377014160158	1667.225952148438	-901.920837402344	-227.8432312011719	1689.346313476563	-986.6181640625002	-253.0955657958985	1696.15966796875	-848.8295898437502	-350.4227600097657	1547.892578125	-911.202575683594	-432.1909484863282	1208.236938476563	-924.0264892578127	-228.8647155761719	1453.026489257813	-912.624206542969	-277.2929992675782	1532.781982421875	-1068.157592773438	-376.0278320312501	1427.846435546875	-1252.971801757813	-340.5331726074219	1388.596801757813	-1259.486450195313	-385.5838012695314	1376.09814453125	-1299.177490234375	-385.7595825195314	1311.967041015625	-1322.484497070313	-464.8770141601564	1301.830444335938	-1281.665649414063	-382.2006225585938	1108.107055664063	-1153.584350585938	-347.3665161132813	1062.783447265625	-1205.15625	-322.6549072265626	1108.153198242188	-1118.562133789063	-268.8504638671876	1522.678100585938	-750.9475097656251	-378.2216491699219	1402.65625	-572.7482299804689	-358.5309753417969	1357.805419921875	-569.6889038085939	-408.3169555664064	1350.957275390625	-534.8260498046876	-422.4319458007814	1302.081665039063	-518.7288818359376	-492.4511108398439	1303.605224609375	-571.4467163085939	-410.4346923828126	1102.910888671875	-712.3721923828126	-374.0765075683594	1065.28759765625	-651.5336914062501	-343.2283020019532	1112.924194335938	-732.4058227539064	-237.2173004150391	1026.78662109375	-1043.662963867188	-245.4767761230469	1025.5087890625	-791.303161621094	-431.1188354492189	1113.72607421875	-924.7272949218752	-434.4758605957032	1082.162719726563	-953.7790527343752	-435.4928588867189	1080.3994140625	-896.938659667969	-343.0290832519532	802.969665527344	-1144.888305664063	-315.7501525878907	721.7984008789064	-1148.13232421875	-268.9745483398438	723.2522583007814	-1142.2353515625	-347.0619201660157	670.5185546875001	-1135.757690429688	-355.7726440429688	513.3901977539064	-1124.138793945313	-317.2427978515626	494.9669189453126	-995.4068603515627	-319.6713867187501	344.8471374511719	-1095.782592773438	-376.6986694335938	306.9145202636719	-1154.1767578125	-336.3167114257813	300.1374511718751	-1131.40087890625	-341.2614440917969	220.1419982910157	-1104.360961914063	-405.2919006347657	86.9144744873047	-1153.276611328125	-368.9275817871094	102.898666381836	-1063.2109375	-467.6289672851564	49.8125457763672	-1095.400024414063	-245.7135314941407	55.14977264404298	-1093.367553710938	-241.7683410644532	59.69528198242189	-1143.581909179688	-294.2198791503907	37.6858139038086	-1193.658081054688	-362.6809692382813	730.8847656250001	-717.8605957031251	-332.0151062011719	671.7622680664064	-713.8297119140626	-298.4260559082032	668.8173217773439	-716.8345947265626	-367.6487731933594	598.1542358398439	-732.8389892578126	-384.3884887695314	505.4613037109376	-734.3499755859376	-326.8753967285157	496.971649169922	-859.5749511718752	-333.2274475097657	397.1388549804689	-728.5311889648439	-407.309295654297	327.3716735839844	-696.6472167968751	-361.6975708007813	318.9229125976563	-702.2006835937501	-345.1085510253907	267.1320495605469	-721.2277832031251	-400.958221435547	89.24741363525392	-693.2201538085939	-356.8653259277344	104.1425323486328	-776.3374023437502	-453.5955810546876	46.50500869750977	-754.8563232421876	-226.1788024902344	55.19309997558595	-743.0159301757814	-231.5439910888672	57.3828468322754	-695.7079467773439	-282.0780029296876	34.81840133666993	-650.9174194335939	
4	0.015	-64.4214324951172	1670.076416015625	-902.8411254882815	-229.5533599853516	1689.752563476563	-987.2593994140627	-254.8778228759766	1695.983154296875	-849.1380615234377	-350.2198486328126	1547.874755859375	-911.6109619140627	-431.886688232422	1208.316772460938	-924.1812133789065	-228.8308410644532	1453.099975585938	-913.124938964844	-277.0312194824219	1532.621337890625	-1068.534790039063	-376.0393981933594	1428.12060546875	-1253.174682617188	-341.5302124023438	1388.782592773438	-1259.455200195313	-385.9140014648439	1376.76171875	-1299.628784179688	-385.5772094726564	1312.315673828125	-1323.000732421875	-464.7637939453126	1302.089965820313	-1282.065307617188	-382.1357421875001	1108.433349609375	-1153.912353515625	-346.4146118164063	1063.957763671875	-1204.468383789063	-322.7448120117188	1108.343017578125	-1118.830322265625	-268.0221862792969	1522.720703125	-751.5034790039064	-378.0241088867188	1402.70703125	-573.2387084960939	-358.3692626953126	1357.876953125	-570.0739746093751	-407.9988098144532	1351.170288085938	-535.3699951171876	-422.378631591797	1302.229125976563	-519.2857055664064	-492.3005676269532	1303.786499023438	-572.0245361328126	-410.1596984863282	1103.047241210938	-712.7787475585939	-373.9623413085938	1065.41796875	-651.8757324218751	-343.1198120117188	1113.016357421875	-732.7341308593751	-237.3101196289063	1026.846069335938	-1043.966552734375	-245.3688049316407	1025.40087890625	-791.7141723632815	-431.0394592285157	1113.8603515625	-925.0186767578127	-434.3963928222657	1082.183837890625	-954.004821777344	-435.3387145996095	1080.523071289063	-897.1284179687502	-342.6778259277344	802.6829223632815	-1145.372314453125	-315.3096618652344	721.7491455078126	-1148.557983398438	-268.5499572753907	723.2869873046876	-1142.567016601563	-346.8628540039063	670.5838623046876	-1136.145385742188	-355.1416015625001	513.4443359375001	-1124.521362304688	-316.4434509277344	495.0032958984376	-995.8291625976565	-319.5052490234376	344.7128906250001	-1095.958862304688	-376.3406677246094	306.7945556640626	-1154.397705078125	-335.9173278808594	300.2116088867188	-1131.574584960938	-341.0264282226563	220.1806335449219	-1104.509033203125	-405.2588806152345	86.91837310791017	-1153.29345703125	-368.8905029296876	102.8997955322266	-1063.24658203125	-467.6288146972657	49.81254196166994	-1095.400268554688	-245.7058715820313	55.12278366088869	-1093.365600585938	-241.7754974365235	59.69445419311525	-1143.552001953125	-294.1859130859376	37.68737792968751	-1193.650146484375	-362.5537109375001	730.8759155273439	-718.0718994140626	-331.8406982421876	671.6618041992189	-714.1487426757814	-298.4750366210938	669.0320434570314	-717.0236816406251	-367.5600585937501	598.1428222656251	-732.9664306640626	-384.3060913085939	505.4357910156251	-734.4788208007814	-326.8546752929688	496.8614807128907	-859.7138671875002	-333.1197509765626	397.0953674316407	-728.6835937500001	-407.2454528808595	327.4086914062501	-696.7076416015626	-361.4972534179688	318.9276428222657	-702.3461914062501	-345.0475769042969	267.1219482421876	-721.3071899414064	-400.9360961914064	89.25417327880861	-693.2051391601564	-356.8488769531251	104.1276397705078	-776.3455810546877	-453.5687255859376	46.51989746093751	-754.8432006835939	-226.1587066650391	55.19537734985353	-743.0064086914064	-231.5947265625001	57.35834121704103	-695.7019042968751	-282.0863342285157	34.82307052612305	-650.8903198242189	
